name ./resultDataOpenSim/trcMotMarkerGrf/sub06/grf-14-02.mot
datacolumns 19
datarows 15
range 1.12800000 1.18400000
endheader

                time	     ground_force_vx	     ground_force_vy	     ground_force_vz	     ground_force_px	     ground_force_py	     ground_force_pz	   l_ground_force_vx	   l_ground_force_vy	   l_ground_force_vz	   l_ground_force_px	   l_ground_force_py	   l_ground_force_pz	     ground_torque_x	     ground_torque_y	     ground_torque_z	   l_ground_torque_x	   l_ground_torque_y	   l_ground_torque_z	
          1.12800000	          0.00000000	          0.00000000	          0.00000000	          0.00000000	          0.00000000	          0.00000000	        142.38403970	        447.06831917	        -19.05373125	          0.10985865	         -0.07499800	         -0.00803626	          0.00000000	          0.00000000	          0.00000000	          0.00000000	         -2.68510467	          0.00000000	
          1.13200000	          0.00000000	          0.00000000	          0.00000000	          0.00000000	          0.00000000	          0.00000000	        138.27349892	        416.10849592	        -19.95636211	          0.11044693	         -0.07499800	         -0.00762027	          0.00000000	          0.00000000	          0.00000000	          0.00000000	         -2.65773236	          0.00000000	
          1.13600000	          0.00000000	          0.00000000	          0.00000000	          0.00000000	          0.00000000	          0.00000000	        132.43007227	        382.44210209	        -20.57871401	          0.11120648	         -0.07499736	         -0.00712751	          0.00000000	          0.00000000	          0.00000000	          0.00000000	         -2.59937253	          0.00000000	
          1.14000000	        -13.53633981	         44.21263932	          0.69897273	          0.79620535	          0.00000000	          0.03885705	        124.67141777	        346.33594314	        -20.88184081	          0.11223974	         -0.07499700	         -0.00651701	          0.00000000	          0.55544084	          0.00000000	          0.00000000	         -2.50716293	          0.00000000	
          1.14400000	        -59.92704868	        338.84852609	         -2.96772422	          0.80036564	          0.00000000	          0.03616492	        114.90616601	        308.28486590	        -20.81912739	          0.11362389	         -0.07499672	         -0.00576975	          0.00000000	          1.70486246	          0.00000000	          0.00000000	         -2.37816161	          0.00000000	
          1.14800000	       -104.37606047	        596.70038871	         -3.02951868	          0.80434760	          0.00000000	          0.03370500	        103.21711137	        269.10238525	        -20.34076782	          0.11538289	         -0.07499624	         -0.00488419	          0.00000000	          2.76320883	          0.00000000	          0.00000000	         -2.21024499	          0.00000000	
          1.15200000	       -145.56333620	        789.14524875	          2.17059975	          0.80823095	          0.00000000	          0.03140942	         89.98800465	        229.90901726	        -19.38701148	          0.11751076	         -0.07499552	         -0.00386452	          0.00000000	          3.63416475	          0.00000000	          0.00000000	         -2.00335407	          0.00000000	
          1.15600000	       -182.14476388	        905.64191637	         11.35441782	          0.81158799	          0.00000000	          0.02952128	         75.97746156	        192.04155142	        -17.89910683	          0.12002302	         -0.07499544	         -0.00273901	          0.00000000	          4.20696276	          0.00000000	          0.00000000	         -1.76084105	          0.00000000	
          1.16000000	       -212.73394438	        956.33209615	         21.51603527	          0.81424738	          0.00000000	          0.02821406	         62.17043539	        156.89957363	        -15.88572936	          0.12288241	         -0.07499520	         -0.00157215	          0.00000000	          4.38420623	          0.00000000	          0.00000000	         -1.49054804	          0.00000000	
          1.16400000	       -237.02724543	        964.08962833	         30.32807591	          0.81668510	          0.00000000	          0.02737205	         49.44822198	        125.68828416	        -13.48872423	          0.12581526	         -0.07499364	         -0.00045958	          0.00000000	          4.11837915	          0.00000000	          0.00000000	         -1.20497712	          0.00000000	
          1.16800000	       -256.47975284	        951.64703764	         37.24049725	          0.81965474	          0.00000000	          0.02675256	         38.35618161	         99.10249213	        -10.93770846	          0.12833596	         -0.07499364	          0.00045846	          0.00000000	          3.44109728	          0.00000000	          0.00000000	         -0.91979962	          0.00000000	
          1.17200000	       -272.89595736	        933.92128181	         42.76029947	          0.82333894	          0.00000000	          0.02625850	         29.12818104	         77.16278185	         -8.40918120	          0.13014505	         -0.07499584	          0.00100173	          0.00000000	          2.47043999	          0.00000000	          0.00000000	         -0.65072162	          0.00000000	
          1.17600000	       -286.55417680	        918.89855148	         47.42827885	          0.82705637	          0.00000000	          0.02589959	         21.83213725	         59.40278591	         -5.94133197	          0.13142044	         -0.07499800	          0.00098771	          0.00000000	          1.38879375	          0.00000000	          0.00000000	         -0.41005747	          0.00000000	
          1.18000000	       -296.61801809	        911.55741713	         51.20079408	          0.82997635	          0.00000000	          0.02560775	         16.43967586	         45.26246339	         -3.48342315	          0.13238017	         -0.07499780	          0.00019963	          0.00000000	          0.39670914	          0.00000000	          0.00000000	         -0.20466756	          0.00000000	
          1.18400000	       -303.20235651	        915.12374886	         53.18888682	          0.83206523	          0.00000000	          0.02535373	         12.78578350	         34.26073685	         -0.99966811	          0.13268800	         -0.07499700	         -0.00168055	          0.00000000	         -0.33947919	          0.00000000	          0.00000000	         -0.03563940	          0.00000000	
